<svg width="143" height="44" viewBox="0 0 143 44" fill="none" xmlns="http://www.w3.org/2000/svg">
<path d="M21.24 21.896C22.632 22.352 23.736 23.12 24.552 24.2C25.368 25.256 25.776 26.576 25.776 28.16C25.776 30.344 24.936 32.036 23.256 33.236C21.576 34.412 19.128 35 15.912 35H3.384V9.8H15.192C18.168 9.8 20.46 10.388 22.068 11.564C23.676 12.716 24.48 14.312 24.48 16.352C24.48 17.6 24.192 18.704 23.616 19.664C23.04 20.624 22.248 21.368 21.24 21.896ZM8.064 13.472V20.42H14.688C16.32 20.42 17.568 20.132 18.432 19.556C19.32 18.956 19.764 18.092 19.764 16.964C19.764 15.812 19.32 14.948 18.432 14.372C17.568 13.772 16.32 13.472 14.688 13.472H8.064ZM15.624 31.328C19.248 31.328 21.06 30.116 21.06 27.692C21.06 25.268 19.248 24.056 15.624 24.056H8.064V31.328H15.624ZM32.1387 15.776H36.6387V35H32.1387V15.776ZM34.4067 12.608C33.5907 12.608 32.9067 12.356 32.3547 11.852C31.8027 11.324 31.5267 10.676 31.5267 9.908C31.5267 9.14 31.8027 8.504 32.3547 8C32.9067 7.472 33.5907 7.208 34.4067 7.208C35.2227 7.208 35.9067 7.46 36.4587 7.964C37.0107 8.444 37.2867 9.056 37.2867 9.8C37.2867 10.592 37.0107 11.264 36.4587 11.816C35.9307 12.344 35.2467 12.608 34.4067 12.608ZM55.901 33.956C55.373 34.388 54.725 34.712 53.957 34.928C53.213 35.144 52.421 35.252 51.581 35.252C49.469 35.252 47.837 34.7 46.685 33.596C45.533 32.492 44.957 30.884 44.957 28.772V19.52H41.789V15.92H44.957V11.528H49.457V15.92H54.605V19.52H49.457V28.664C49.457 29.6 49.685 30.32 50.141 30.824C50.597 31.304 51.257 31.544 52.121 31.544C53.129 31.544 53.969 31.28 54.641 30.752L55.901 33.956ZM69.59 35.252C67.598 35.252 65.81 34.832 64.226 33.992C62.642 33.152 61.406 31.988 60.518 30.5C59.63 28.988 59.186 27.284 59.186 25.388C59.186 23.492 59.63 21.8 60.518 20.312C61.406 18.824 62.63 17.66 64.19 16.82C65.774 15.98 67.574 15.56 69.59 15.56C71.486 15.56 73.142 15.944 74.558 16.712C75.998 17.48 77.078 18.584 77.798 20.024L74.342 22.04C73.79 21.152 73.094 20.492 72.254 20.06C71.438 19.604 70.538 19.376 69.554 19.376C67.874 19.376 66.482 19.928 65.378 21.032C64.274 22.112 63.722 23.564 63.722 25.388C63.722 27.212 64.262 28.676 65.342 29.78C66.446 30.86 67.85 31.4 69.554 31.4C70.538 31.4 71.438 31.184 72.254 30.752C73.094 30.296 73.79 29.624 74.342 28.736L77.798 30.752C77.054 32.192 75.962 33.308 74.522 34.1C73.106 34.868 71.462 35.252 69.59 35.252ZM91.8467 35.252C89.9027 35.252 88.1507 34.832 86.5907 33.992C85.0307 33.152 83.8067 31.988 82.9187 30.5C82.0547 28.988 81.6227 27.284 81.6227 25.388C81.6227 23.492 82.0547 21.8 82.9187 20.312C83.8067 18.824 85.0307 17.66 86.5907 16.82C88.1507 15.98 89.9027 15.56 91.8467 15.56C93.8147 15.56 95.5787 15.98 97.1387 16.82C98.6987 17.66 99.9107 18.824 100.775 20.312C101.663 21.8 102.107 23.492 102.107 25.388C102.107 27.284 101.663 28.988 100.775 30.5C99.9107 31.988 98.6987 33.152 97.1387 33.992C95.5787 34.832 93.8147 35.252 91.8467 35.252ZM91.8467 31.4C93.5027 31.4 94.8707 30.848 95.9507 29.744C97.0307 28.64 97.5707 27.188 97.5707 25.388C97.5707 23.588 97.0307 22.136 95.9507 21.032C94.8707 19.928 93.5027 19.376 91.8467 19.376C90.1907 19.376 88.8227 19.928 87.7427 21.032C86.6867 22.136 86.1587 23.588 86.1587 25.388C86.1587 27.188 86.6867 28.64 87.7427 29.744C88.8227 30.848 90.1907 31.4 91.8467 31.4ZM108.21 15.776H112.71V35H108.21V15.776ZM110.478 12.608C109.662 12.608 108.978 12.356 108.426 11.852C107.874 11.324 107.598 10.676 107.598 9.908C107.598 9.14 107.874 8.504 108.426 8C108.978 7.472 109.662 7.208 110.478 7.208C111.294 7.208 111.978 7.46 112.53 7.964C113.082 8.444 113.358 9.056 113.358 9.8C113.358 10.592 113.082 11.264 112.53 11.816C112.002 12.344 111.318 12.608 110.478 12.608ZM131.324 15.56C133.748 15.56 135.692 16.268 137.156 17.684C138.62 19.1 139.352 21.2 139.352 23.984V35H134.852V24.56C134.852 22.88 134.456 21.62 133.664 20.78C132.872 19.916 131.744 19.484 130.28 19.484C128.624 19.484 127.316 19.988 126.356 20.996C125.396 21.98 124.916 23.408 124.916 25.28V35H120.416V15.776H124.7V18.26C125.444 17.372 126.38 16.7 127.508 16.244C128.636 15.788 129.908 15.56 131.324 15.56Z" fill="black"/>
<rect x="7" y="5" width="3" height="7" fill="black"/>
<rect x="7" y="33" width="3" height="7" fill="black"/>
<rect x="13" y="33" width="3" height="7" fill="black"/>
<rect x="13" y="5" width="3" height="7" fill="black"/>
</svg>
