<svg width="199" height="44" viewBox="0 0 199 44" fill="none" xmlns="http://www.w3.org/2000/svg">
<rect x="8" y="5" width="3" height="8" fill="black"/>
<rect x="8" y="32" width="3" height="8" fill="black"/>
<rect x="15" y="5" width="3" height="8" fill="black"/>
<rect x="15" y="32" width="3" height="8" fill="black"/>
<path d="M22.284 31.076V35H3.384V9.8H21.78V13.724H8.064V20.276H20.232V24.128H8.064V31.076H22.284ZM40.0736 33.956C39.5456 34.388 38.8976 34.712 38.1296 34.928C37.3856 35.144 36.5936 35.252 35.7536 35.252C33.6416 35.252 32.0096 34.7 30.8576 33.596C29.7056 32.492 29.1296 30.884 29.1296 28.772V19.52H25.9616V15.92H29.1296V11.528H33.6296V15.92H38.7776V19.52H33.6296V28.664C33.6296 29.6 33.8576 30.32 34.3136 30.824C34.7696 31.304 35.4296 31.544 36.2936 31.544C37.3016 31.544 38.1416 31.28 38.8136 30.752L40.0736 33.956ZM56.4834 15.56C58.9074 15.56 60.8514 16.268 62.3154 17.684C63.7794 19.1 64.5114 21.2 64.5114 23.984V35H60.0114V24.56C60.0114 22.88 59.6154 21.62 58.8234 20.78C58.0314 19.916 56.9034 19.484 55.4394 19.484C53.7834 19.484 52.4754 19.988 51.5154 20.996C50.5554 21.98 50.0754 23.408 50.0754 25.28V35H45.5754V8.288H50.0754V18.008C50.8194 17.216 51.7314 16.616 52.8114 16.208C53.9154 15.776 55.1394 15.56 56.4834 15.56ZM90.2678 25.496C90.2678 25.808 90.2438 26.252 90.1958 26.828H75.1118C75.3758 28.244 76.0598 29.372 77.1638 30.212C78.2918 31.028 79.6838 31.436 81.3398 31.436C83.4518 31.436 85.1918 30.74 86.5598 29.348L88.9718 32.12C88.1078 33.152 87.0158 33.932 85.6958 34.46C84.3758 34.988 82.8878 35.252 81.2318 35.252C79.1198 35.252 77.2598 34.832 75.6518 33.992C74.0438 33.152 72.7958 31.988 71.9078 30.5C71.0438 28.988 70.6118 27.284 70.6118 25.388C70.6118 23.516 71.0318 21.836 71.8718 20.348C72.7358 18.836 73.9238 17.66 75.4358 16.82C76.9478 15.98 78.6518 15.56 80.5478 15.56C82.4198 15.56 84.0878 15.98 85.5518 16.82C87.0398 17.636 88.1918 18.8 89.0078 20.312C89.8478 21.8 90.2678 23.528 90.2678 25.496ZM80.5478 19.16C79.1078 19.16 77.8838 19.592 76.8758 20.456C75.8918 21.296 75.2918 22.424 75.0758 23.84H85.9838C85.7918 22.448 85.2038 21.32 84.2198 20.456C83.2358 19.592 82.0118 19.16 80.5478 19.16ZM100.674 18.584C101.97 16.568 104.25 15.56 107.514 15.56V19.844C107.13 19.772 106.782 19.736 106.47 19.736C104.718 19.736 103.35 20.252 102.366 21.284C101.382 22.292 100.89 23.756 100.89 25.676V35H96.3903V15.776H100.674V18.584ZM131.028 25.496C131.028 25.808 131.004 26.252 130.956 26.828H115.872C116.136 28.244 116.82 29.372 117.924 30.212C119.052 31.028 120.444 31.436 122.1 31.436C124.212 31.436 125.952 30.74 127.32 29.348L129.732 32.12C128.868 33.152 127.776 33.932 126.456 34.46C125.136 34.988 123.648 35.252 121.992 35.252C119.88 35.252 118.02 34.832 116.412 33.992C114.804 33.152 113.556 31.988 112.668 30.5C111.804 28.988 111.372 27.284 111.372 25.388C111.372 23.516 111.792 21.836 112.632 20.348C113.496 18.836 114.684 17.66 116.196 16.82C117.708 15.98 119.412 15.56 121.308 15.56C123.18 15.56 124.848 15.98 126.312 16.82C127.8 17.636 128.952 18.8 129.768 20.312C130.608 21.8 131.028 23.528 131.028 25.496ZM121.308 19.16C119.868 19.16 118.644 19.592 117.636 20.456C116.652 21.296 116.052 22.424 115.836 23.84H126.744C126.552 22.448 125.964 21.32 124.98 20.456C123.996 19.592 122.772 19.16 121.308 19.16ZM155.762 15.776V35H151.478V32.552C150.758 33.416 149.858 34.088 148.778 34.568C147.698 35.024 146.534 35.252 145.286 35.252C142.718 35.252 140.69 34.544 139.202 33.128C137.738 31.688 137.006 29.564 137.006 26.756V15.776H141.506V26.144C141.506 27.872 141.89 29.168 142.658 30.032C143.45 30.872 144.566 31.292 146.006 31.292C147.614 31.292 148.886 30.8 149.822 29.816C150.782 28.808 151.262 27.368 151.262 25.496V15.776H155.762ZM187.718 15.56C190.142 15.56 192.062 16.268 193.478 17.684C194.894 19.076 195.602 21.176 195.602 23.984V35H191.102V24.56C191.102 22.88 190.73 21.62 189.986 20.78C189.242 19.916 188.174 19.484 186.782 19.484C185.27 19.484 184.058 19.988 183.146 20.996C182.234 21.98 181.778 23.396 181.778 25.244V35H177.278V24.56C177.278 22.88 176.906 21.62 176.162 20.78C175.418 19.916 174.35 19.484 172.958 19.484C171.422 19.484 170.198 19.976 169.286 20.96C168.398 21.944 167.954 23.372 167.954 25.244V35H163.454V15.776H167.738V18.224C168.458 17.36 169.358 16.7 170.438 16.244C171.518 15.788 172.718 15.56 174.038 15.56C175.478 15.56 176.75 15.836 177.854 16.388C178.982 16.916 179.87 17.708 180.518 18.764C181.31 17.756 182.33 16.976 183.578 16.424C184.826 15.848 186.206 15.56 187.718 15.56Z" fill="black"/>
</svg>
