<svg width="161" height="44" viewBox="0 0 161 44" fill="none" xmlns="http://www.w3.org/2000/svg">
<path d="M3.384 9.8H8.064V31.04H21.24V35H3.384V9.8ZM26.3028 15.776H30.8028V35H26.3028V15.776ZM28.5708 12.608C27.7548 12.608 27.0708 12.356 26.5188 11.852C25.9668 11.324 25.6908 10.676 25.6908 9.908C25.6908 9.14 25.9668 8.504 26.5188 8C27.0708 7.472 27.7548 7.208 28.5708 7.208C29.3868 7.208 30.0708 7.46 30.6228 7.964C31.1748 8.444 31.4508 9.056 31.4508 9.8C31.4508 10.592 31.1748 11.264 30.6228 11.816C30.0948 12.344 29.4108 12.608 28.5708 12.608ZM50.065 33.956C49.537 34.388 48.889 34.712 48.121 34.928C47.377 35.144 46.585 35.252 45.745 35.252C43.633 35.252 42.001 34.7 40.849 33.596C39.697 32.492 39.121 30.884 39.121 28.772V19.52H35.953V15.92H39.121V11.528H43.621V15.92H48.769V19.52H43.621V28.664C43.621 29.6 43.849 30.32 44.305 30.824C44.761 31.304 45.421 31.544 46.285 31.544C47.293 31.544 48.133 31.28 48.805 30.752L50.065 33.956ZM73.006 25.496C73.006 25.808 72.982 26.252 72.934 26.828H57.85C58.114 28.244 58.798 29.372 59.902 30.212C61.03 31.028 62.422 31.436 64.078 31.436C66.19 31.436 67.93 30.74 69.298 29.348L71.71 32.12C70.846 33.152 69.754 33.932 68.434 34.46C67.114 34.988 65.626 35.252 63.97 35.252C61.858 35.252 59.998 34.832 58.39 33.992C56.782 33.152 55.534 31.988 54.646 30.5C53.782 28.988 53.35 27.284 53.35 25.388C53.35 23.516 53.77 21.836 54.61 20.348C55.474 18.836 56.662 17.66 58.174 16.82C59.686 15.98 61.39 15.56 63.286 15.56C65.158 15.56 66.826 15.98 68.29 16.82C69.778 17.636 70.93 18.8 71.746 20.312C72.586 21.8 73.006 23.528 73.006 25.496ZM63.286 19.16C61.846 19.16 60.622 19.592 59.614 20.456C58.63 21.296 58.03 22.424 57.814 23.84H68.722C68.53 22.448 67.942 21.32 66.958 20.456C65.974 19.592 64.75 19.16 63.286 19.16ZM87.9486 35.252C85.9566 35.252 84.1686 34.832 82.5846 33.992C81.0006 33.152 79.7646 31.988 78.8766 30.5C77.9886 28.988 77.5446 27.284 77.5446 25.388C77.5446 23.492 77.9886 21.8 78.8766 20.312C79.7646 18.824 80.9886 17.66 82.5486 16.82C84.1326 15.98 85.9326 15.56 87.9486 15.56C89.8446 15.56 91.5006 15.944 92.9166 16.712C94.3566 17.48 95.4366 18.584 96.1566 20.024L92.7006 22.04C92.1486 21.152 91.4526 20.492 90.6126 20.06C89.7966 19.604 88.8966 19.376 87.9126 19.376C86.2326 19.376 84.8406 19.928 83.7366 21.032C82.6326 22.112 82.0806 23.564 82.0806 25.388C82.0806 27.212 82.6206 28.676 83.7006 29.78C84.8046 30.86 86.2086 31.4 87.9126 31.4C88.8966 31.4 89.7966 31.184 90.6126 30.752C91.4526 30.296 92.1486 29.624 92.7006 28.736L96.1566 30.752C95.4126 32.192 94.3206 33.308 92.8806 34.1C91.4646 34.868 89.8206 35.252 87.9486 35.252ZM110.205 35.252C108.261 35.252 106.509 34.832 104.949 33.992C103.389 33.152 102.165 31.988 101.277 30.5C100.413 28.988 99.9813 27.284 99.9813 25.388C99.9813 23.492 100.413 21.8 101.277 20.312C102.165 18.824 103.389 17.66 104.949 16.82C106.509 15.98 108.261 15.56 110.205 15.56C112.173 15.56 113.937 15.98 115.497 16.82C117.057 17.66 118.269 18.824 119.133 20.312C120.021 21.8 120.465 23.492 120.465 25.388C120.465 27.284 120.021 28.988 119.133 30.5C118.269 31.988 117.057 33.152 115.497 33.992C113.937 34.832 112.173 35.252 110.205 35.252ZM110.205 31.4C111.861 31.4 113.229 30.848 114.309 29.744C115.389 28.64 115.929 27.188 115.929 25.388C115.929 23.588 115.389 22.136 114.309 21.032C113.229 19.928 111.861 19.376 110.205 19.376C108.549 19.376 107.181 19.928 106.101 21.032C105.045 22.136 104.517 23.588 104.517 25.388C104.517 27.188 105.045 28.64 106.101 29.744C107.181 30.848 108.549 31.4 110.205 31.4ZM126.568 15.776H131.068V35H126.568V15.776ZM128.836 12.608C128.02 12.608 127.336 12.356 126.784 11.852C126.232 11.324 125.956 10.676 125.956 9.908C125.956 9.14 126.232 8.504 126.784 8C127.336 7.472 128.02 7.208 128.836 7.208C129.652 7.208 130.336 7.46 130.888 7.964C131.44 8.444 131.716 9.056 131.716 9.8C131.716 10.592 131.44 11.264 130.888 11.816C130.36 12.344 129.676 12.608 128.836 12.608ZM149.683 15.56C152.107 15.56 154.051 16.268 155.515 17.684C156.979 19.1 157.711 21.2 157.711 23.984V35H153.211V24.56C153.211 22.88 152.815 21.62 152.023 20.78C151.231 19.916 150.103 19.484 148.639 19.484C146.983 19.484 145.675 19.988 144.715 20.996C143.755 21.98 143.275 23.408 143.275 25.28V35H138.775V15.776H143.059V18.26C143.803 17.372 144.739 16.7 145.867 16.244C146.995 15.788 148.267 15.56 149.683 15.56Z" fill="black"/>
<rect y="17" width="11.5" height="3" fill="black"/>
</svg>
